<mxfile host="app.diagrams.net" modified="2020-12-21T09:18:26.606Z" agent="5.0 (Macintosh; Intel Mac OS X 10_15_3) AppleWebKit/537.36 (KHTML, like Gecko) Chrome/87.0.4280.88 Safari/537.36" etag="FKomZ01-yjA_HG1qhudS" version="13.10.2" type="github">
  <diagram id="1SZtNcZNY4tcun21ia8f" name="第 1 页">
    <mxGraphModel dx="946" dy="613" grid="1" gridSize="10" guides="1" tooltips="1" connect="1" arrows="1" fold="1" page="1" pageScale="1" pageWidth="1654" pageHeight="2336" math="0" shadow="0">
      <root>
        <mxCell id="0" />
        <mxCell id="1" parent="0" />
        <mxCell id="xb7lIQ-bJNXaiGIV21DX-7" style="edgeStyle=orthogonalEdgeStyle;rounded=0;orthogonalLoop=1;jettySize=auto;html=1;" edge="1" parent="1" source="xb7lIQ-bJNXaiGIV21DX-1" target="xb7lIQ-bJNXaiGIV21DX-3">
          <mxGeometry relative="1" as="geometry" />
        </mxCell>
        <mxCell id="xb7lIQ-bJNXaiGIV21DX-1" value="&lt;span&gt;订阅回调&lt;/span&gt;" style="rounded=0;whiteSpace=wrap;html=1;" vertex="1" parent="1">
          <mxGeometry x="350" y="90" width="120" height="60" as="geometry" />
        </mxCell>
        <mxCell id="xb7lIQ-bJNXaiGIV21DX-8" style="edgeStyle=orthogonalEdgeStyle;rounded=0;orthogonalLoop=1;jettySize=auto;html=1;" edge="1" parent="1" source="xb7lIQ-bJNXaiGIV21DX-3" target="xb7lIQ-bJNXaiGIV21DX-5">
          <mxGeometry relative="1" as="geometry" />
        </mxCell>
        <mxCell id="xb7lIQ-bJNXaiGIV21DX-9" style="edgeStyle=orthogonalEdgeStyle;rounded=0;orthogonalLoop=1;jettySize=auto;html=1;" edge="1" parent="1" source="xb7lIQ-bJNXaiGIV21DX-3" target="xb7lIQ-bJNXaiGIV21DX-6">
          <mxGeometry relative="1" as="geometry" />
        </mxCell>
        <mxCell id="xb7lIQ-bJNXaiGIV21DX-35" style="edgeStyle=orthogonalEdgeStyle;rounded=0;orthogonalLoop=1;jettySize=auto;html=1;" edge="1" parent="1" source="xb7lIQ-bJNXaiGIV21DX-3" target="xb7lIQ-bJNXaiGIV21DX-34">
          <mxGeometry relative="1" as="geometry" />
        </mxCell>
        <mxCell id="xb7lIQ-bJNXaiGIV21DX-3" value="&lt;span&gt;选择策略&lt;/span&gt;" style="rounded=0;whiteSpace=wrap;html=1;" vertex="1" parent="1">
          <mxGeometry x="350" y="190" width="120" height="60" as="geometry" />
        </mxCell>
        <mxCell id="xb7lIQ-bJNXaiGIV21DX-32" style="edgeStyle=orthogonalEdgeStyle;rounded=0;orthogonalLoop=1;jettySize=auto;html=1;" edge="1" parent="1" source="xb7lIQ-bJNXaiGIV21DX-5" target="xb7lIQ-bJNXaiGIV21DX-29">
          <mxGeometry relative="1" as="geometry" />
        </mxCell>
        <mxCell id="xb7lIQ-bJNXaiGIV21DX-5" value="渠道自带" style="rounded=0;whiteSpace=wrap;html=1;" vertex="1" parent="1">
          <mxGeometry x="170" y="350" width="120" height="60" as="geometry" />
        </mxCell>
        <mxCell id="xb7lIQ-bJNXaiGIV21DX-14" style="edgeStyle=orthogonalEdgeStyle;rounded=0;orthogonalLoop=1;jettySize=auto;html=1;" edge="1" parent="1" source="xb7lIQ-bJNXaiGIV21DX-6" target="xb7lIQ-bJNXaiGIV21DX-11">
          <mxGeometry relative="1" as="geometry" />
        </mxCell>
        <mxCell id="xb7lIQ-bJNXaiGIV21DX-6" value="文本解析" style="rounded=0;whiteSpace=wrap;html=1;" vertex="1" parent="1">
          <mxGeometry x="530" y="340" width="120" height="60" as="geometry" />
        </mxCell>
        <mxCell id="xb7lIQ-bJNXaiGIV21DX-10" value="(已揽收,派送中)截取网点文本解析" style="rounded=0;whiteSpace=wrap;html=1;" vertex="1" parent="1">
          <mxGeometry x="530" y="600" width="120" height="60" as="geometry" />
        </mxCell>
        <mxCell id="xb7lIQ-bJNXaiGIV21DX-11" value="腾讯地图获取地址" style="rhombus;whiteSpace=wrap;html=1;fillColor=#ffffc0;strokeColor=#ff0000;" vertex="1" parent="1">
          <mxGeometry x="550" y="460" width="80" height="60" as="geometry" />
        </mxCell>
        <mxCell id="xb7lIQ-bJNXaiGIV21DX-12" value="no" style="edgeStyle=orthogonalEdgeStyle;html=1;align=left;verticalAlign=bottom;endArrow=open;endSize=8;strokeColor=#ff0000;entryX=0;entryY=0.5;entryDx=0;entryDy=0;" edge="1" source="xb7lIQ-bJNXaiGIV21DX-11" parent="1" target="xb7lIQ-bJNXaiGIV21DX-15">
          <mxGeometry x="-1" y="-64" relative="1" as="geometry">
            <mxPoint x="680" y="480" as="targetPoint" />
            <mxPoint x="-40" y="-14" as="offset" />
          </mxGeometry>
        </mxCell>
        <mxCell id="xb7lIQ-bJNXaiGIV21DX-13" value="yes" style="edgeStyle=orthogonalEdgeStyle;html=1;align=left;verticalAlign=top;endArrow=open;endSize=8;strokeColor=#ff0000;entryX=0.5;entryY=0;entryDx=0;entryDy=0;" edge="1" source="xb7lIQ-bJNXaiGIV21DX-11" parent="1" target="xb7lIQ-bJNXaiGIV21DX-10">
          <mxGeometry x="-1" y="58" relative="1" as="geometry">
            <mxPoint x="520" y="500" as="targetPoint" />
            <mxPoint x="-8" y="-30" as="offset" />
          </mxGeometry>
        </mxCell>
        <mxCell id="xb7lIQ-bJNXaiGIV21DX-15" value="&lt;span&gt;落库&lt;/span&gt;" style="rounded=0;whiteSpace=wrap;html=1;" vertex="1" parent="1">
          <mxGeometry x="720" y="460" width="120" height="60" as="geometry" />
        </mxCell>
        <mxCell id="xb7lIQ-bJNXaiGIV21DX-17" style="edgeStyle=orthogonalEdgeStyle;rounded=0;orthogonalLoop=1;jettySize=auto;html=1;" edge="1" parent="1" target="xb7lIQ-bJNXaiGIV21DX-19">
          <mxGeometry relative="1" as="geometry">
            <mxPoint x="590" y="660" as="sourcePoint" />
          </mxGeometry>
        </mxCell>
        <mxCell id="xb7lIQ-bJNXaiGIV21DX-18" value="&lt;span style=&quot;color: rgb(23 , 43 , 77) ; font-family: , , &amp;#34;segoe ui&amp;#34; , &amp;#34;roboto&amp;#34; , &amp;#34;oxygen&amp;#34; , &amp;#34;ubuntu&amp;#34; , &amp;#34;fira sans&amp;#34; , &amp;#34;droid sans&amp;#34; , &amp;#34;helvetica neue&amp;#34; , sans-serif ; font-size: 14px ; text-align: left ; background-color: rgb(255 , 255 , 255)&quot;&gt;(运输中)文本解析&lt;/span&gt;" style="rounded=0;whiteSpace=wrap;html=1;" vertex="1" parent="1">
          <mxGeometry x="530" y="830" width="120" height="50" as="geometry" />
        </mxCell>
        <mxCell id="xb7lIQ-bJNXaiGIV21DX-19" value="腾讯地图获取地址" style="rhombus;whiteSpace=wrap;html=1;fillColor=#ffffc0;strokeColor=#ff0000;" vertex="1" parent="1">
          <mxGeometry x="550" y="720" width="80" height="60" as="geometry" />
        </mxCell>
        <mxCell id="xb7lIQ-bJNXaiGIV21DX-20" value="no" style="edgeStyle=orthogonalEdgeStyle;html=1;align=left;verticalAlign=bottom;endArrow=open;endSize=8;strokeColor=#ff0000;entryX=0;entryY=0.5;entryDx=0;entryDy=0;" edge="1" parent="1" source="xb7lIQ-bJNXaiGIV21DX-19" target="xb7lIQ-bJNXaiGIV21DX-22">
          <mxGeometry x="-1" y="-64" relative="1" as="geometry">
            <mxPoint x="730" y="740" as="targetPoint" />
            <mxPoint x="-40" y="-14" as="offset" />
          </mxGeometry>
        </mxCell>
        <mxCell id="xb7lIQ-bJNXaiGIV21DX-21" value="yes" style="edgeStyle=orthogonalEdgeStyle;html=1;align=left;verticalAlign=top;endArrow=open;endSize=8;strokeColor=#ff0000;entryX=0.5;entryY=0;entryDx=0;entryDy=0;" edge="1" parent="1" source="xb7lIQ-bJNXaiGIV21DX-19" target="xb7lIQ-bJNXaiGIV21DX-18">
          <mxGeometry x="-1" y="67" relative="1" as="geometry">
            <mxPoint x="570" y="760" as="targetPoint" />
            <mxPoint x="-7" y="-30" as="offset" />
          </mxGeometry>
        </mxCell>
        <mxCell id="xb7lIQ-bJNXaiGIV21DX-22" value="落库" style="rounded=0;whiteSpace=wrap;html=1;" vertex="1" parent="1">
          <mxGeometry x="730" y="720" width="120" height="60" as="geometry" />
        </mxCell>
        <mxCell id="xb7lIQ-bJNXaiGIV21DX-23" style="edgeStyle=orthogonalEdgeStyle;rounded=0;orthogonalLoop=1;jettySize=auto;html=1;" edge="1" parent="1" target="xb7lIQ-bJNXaiGIV21DX-25">
          <mxGeometry relative="1" as="geometry">
            <mxPoint x="590" y="880" as="sourcePoint" />
          </mxGeometry>
        </mxCell>
        <mxCell id="xb7lIQ-bJNXaiGIV21DX-24" value="&lt;span style=&quot;color: rgb(23 , 43 , 77) ; font-family: , , &amp;#34;segoe ui&amp;#34; , &amp;#34;roboto&amp;#34; , &amp;#34;oxygen&amp;#34; , &amp;#34;ubuntu&amp;#34; , &amp;#34;fira sans&amp;#34; , &amp;#34;droid sans&amp;#34; , &amp;#34;helvetica neue&amp;#34; , sans-serif ; font-size: 14px ; text-align: left ; background-color: rgb(255 , 255 , 255)&quot;&gt;四级地址库匹配&lt;/span&gt;" style="rounded=0;whiteSpace=wrap;html=1;" vertex="1" parent="1">
          <mxGeometry x="530" y="1050" width="120" height="50" as="geometry" />
        </mxCell>
        <mxCell id="xb7lIQ-bJNXaiGIV21DX-25" value="腾讯地图获取地址" style="rhombus;whiteSpace=wrap;html=1;fillColor=#ffffc0;strokeColor=#ff0000;" vertex="1" parent="1">
          <mxGeometry x="550" y="940" width="80" height="60" as="geometry" />
        </mxCell>
        <mxCell id="xb7lIQ-bJNXaiGIV21DX-26" value="no" style="edgeStyle=orthogonalEdgeStyle;html=1;align=left;verticalAlign=bottom;endArrow=open;endSize=8;strokeColor=#ff0000;entryX=0;entryY=0.5;entryDx=0;entryDy=0;" edge="1" parent="1" source="xb7lIQ-bJNXaiGIV21DX-25" target="xb7lIQ-bJNXaiGIV21DX-28">
          <mxGeometry x="-1" y="-64" relative="1" as="geometry">
            <mxPoint x="730" y="960" as="targetPoint" />
            <mxPoint x="-40" y="-14" as="offset" />
          </mxGeometry>
        </mxCell>
        <mxCell id="xb7lIQ-bJNXaiGIV21DX-27" value="yes" style="edgeStyle=orthogonalEdgeStyle;html=1;align=left;verticalAlign=top;endArrow=open;endSize=8;strokeColor=#ff0000;entryX=0.5;entryY=0;entryDx=0;entryDy=0;" edge="1" parent="1" source="xb7lIQ-bJNXaiGIV21DX-25" target="xb7lIQ-bJNXaiGIV21DX-24">
          <mxGeometry x="-1" y="58" relative="1" as="geometry">
            <mxPoint x="570" y="980" as="targetPoint" />
            <mxPoint x="-8" y="-30" as="offset" />
          </mxGeometry>
        </mxCell>
        <mxCell id="xb7lIQ-bJNXaiGIV21DX-28" value="&lt;meta charset=&quot;utf-8&quot;&gt;&lt;span style=&quot;color: rgb(0, 0, 0); font-family: helvetica; font-size: 12px; font-style: normal; font-weight: 400; letter-spacing: normal; text-align: center; text-indent: 0px; text-transform: none; word-spacing: 0px; background-color: rgb(248, 249, 250); display: inline; float: none;&quot;&gt;落库&lt;/span&gt;" style="rounded=0;whiteSpace=wrap;html=1;" vertex="1" parent="1">
          <mxGeometry x="730" y="940" width="120" height="60" as="geometry" />
        </mxCell>
        <mxCell id="xb7lIQ-bJNXaiGIV21DX-29" value="腾讯地图获取地址" style="rhombus;whiteSpace=wrap;html=1;fillColor=#ffffc0;strokeColor=#ff0000;" vertex="1" parent="1">
          <mxGeometry x="190" y="470" width="80" height="60" as="geometry" />
        </mxCell>
        <mxCell id="xb7lIQ-bJNXaiGIV21DX-30" value="no" style="edgeStyle=orthogonalEdgeStyle;html=1;align=left;verticalAlign=bottom;endArrow=open;endSize=8;strokeColor=#ff0000;" edge="1" parent="1" source="xb7lIQ-bJNXaiGIV21DX-29">
          <mxGeometry x="-1" y="86" relative="1" as="geometry">
            <mxPoint x="60" y="500" as="targetPoint" />
            <mxPoint x="50" y="-16" as="offset" />
          </mxGeometry>
        </mxCell>
        <mxCell id="xb7lIQ-bJNXaiGIV21DX-31" value="yes" style="edgeStyle=orthogonalEdgeStyle;html=1;align=left;verticalAlign=top;endArrow=open;endSize=8;strokeColor=#ff0000;entryX=0;entryY=0.5;entryDx=0;entryDy=0;" edge="1" parent="1" source="xb7lIQ-bJNXaiGIV21DX-29" target="xb7lIQ-bJNXaiGIV21DX-6">
          <mxGeometry x="-1" y="-94" relative="1" as="geometry">
            <mxPoint x="280" y="570" as="targetPoint" />
            <mxPoint x="14" y="-50" as="offset" />
            <Array as="points">
              <mxPoint x="230" y="640" />
              <mxPoint x="480" y="640" />
              <mxPoint x="480" y="370" />
            </Array>
          </mxGeometry>
        </mxCell>
        <mxCell id="xb7lIQ-bJNXaiGIV21DX-33" value="落库" style="rounded=0;whiteSpace=wrap;html=1;" vertex="1" parent="1">
          <mxGeometry x="10" y="470" width="120" height="60" as="geometry" />
        </mxCell>
        <mxCell id="xb7lIQ-bJNXaiGIV21DX-36" style="edgeStyle=orthogonalEdgeStyle;rounded=0;orthogonalLoop=1;jettySize=auto;html=1;entryX=1;entryY=0.5;entryDx=0;entryDy=0;" edge="1" parent="1" source="xb7lIQ-bJNXaiGIV21DX-34" target="xb7lIQ-bJNXaiGIV21DX-5">
          <mxGeometry relative="1" as="geometry">
            <Array as="points">
              <mxPoint x="300" y="320" />
              <mxPoint x="300" y="380" />
            </Array>
          </mxGeometry>
        </mxCell>
        <mxCell id="xb7lIQ-bJNXaiGIV21DX-37" style="edgeStyle=orthogonalEdgeStyle;rounded=0;orthogonalLoop=1;jettySize=auto;html=1;entryX=0.5;entryY=0;entryDx=0;entryDy=0;" edge="1" parent="1" source="xb7lIQ-bJNXaiGIV21DX-34" target="xb7lIQ-bJNXaiGIV21DX-6">
          <mxGeometry relative="1" as="geometry" />
        </mxCell>
        <mxCell id="xb7lIQ-bJNXaiGIV21DX-34" value="爬虫查地址渠道" style="rounded=0;whiteSpace=wrap;html=1;" vertex="1" parent="1">
          <mxGeometry x="350" y="290" width="120" height="60" as="geometry" />
        </mxCell>
        <mxCell id="xb7lIQ-bJNXaiGIV21DX-38" value="yes" style="text;strokeColor=none;fillColor=none;align=left;verticalAlign=middle;spacingTop=-1;spacingLeft=4;spacingRight=4;rotatable=0;labelPosition=right;points=[];portConstraint=eastwest;" vertex="1" parent="1">
          <mxGeometry x="300" y="300" width="20" height="14" as="geometry" />
        </mxCell>
        <mxCell id="xb7lIQ-bJNXaiGIV21DX-39" value="no" style="text;strokeColor=none;fillColor=none;align=left;verticalAlign=middle;spacingTop=-1;spacingLeft=4;spacingRight=4;rotatable=0;labelPosition=right;points=[];portConstraint=eastwest;" vertex="1" parent="1">
          <mxGeometry x="490" y="290" width="20" height="14" as="geometry" />
        </mxCell>
      </root>
    </mxGraphModel>
  </diagram>
</mxfile>
